<svg xmlns="http://www.w3.org/2000/svg" viewBox="0 -0.5 150 150" shape-rendering="crispEdges">
<metadata>Made with Pixels to Svg https://codepen.io/shshaw/pen/XbxvNj</metadata>
<path stroke="#040000" d="M71 6h9M81 9h2M84 9h1M84 10h1M86 13h1M100 64h1M100 65h1M50 66h1M100 66h1M50 67h1M100 67h1M50 68h1M100 68h1M50 69h1M100 69h1M50 70h1M50 71h1M50 72h1M50 73h1M50 74h1M60 140h14M77 140h12" />
<path stroke="#240000" d="M69 7h1M65 14h1M86 14h1M65 16h2M74 17h1M90 17h1M74 20h1M78 20h1M78 21h1M81 21h1M81 22h2M82 23h1M83 25h3" />
<path stroke="#200000" d="M70 7h1M81 8h2M83 9h1M63 10h1M83 10h1M65 13h1M87 13h1M61 15h1M67 17h1M80 18h1M59 19h1M63 19h2M69 19h1M76 19h1M72 20h2M88 20h2M59 21h1M80 21h1M60 22h1M88 22h1M83 23h1M84 24h1M87 24h1M69 27h1M74 27h1M61 90h1M59 139h1" />
<path stroke="#683e1c" d="M71 7h1M70 8h1M73 8h4M70 9h2M77 9h1M67 30h1M77 30h1" />
<path stroke="#c79e7c" d="M72 7h1M81 10h1M78 13h1M69 16h1" />
<path stroke="#c9a07f" d="M73 7h1M79 8h1M78 12h1M79 13h1M75 14h1" />
<path stroke="#c89f7e" d="M74 7h2M77 14h1M62 15h1" />
<path stroke="#cba180" d="M76 7h1M80 10h1M82 12h1M71 16h1" />
<path stroke="#c59c7c" d="M77 7h1M71 8h1M78 8h1M66 11h1M81 17h1" />
<path stroke="#280400" d="M78 7h1M80 7h1M68 8h1M67 9h1M85 10h1M65 11h1M63 12h1M65 15h1M64 17h1M66 17h1M75 18h1M68 19h1M70 19h1M90 19h1M64 20h1M71 20h1M76 20h1M81 20h1M63 21h1M82 21h1M89 21h1M63 22h1M63 23h1M88 23h1M60 24h1M63 24h1M87 25h1" />
<path stroke="#1a0000" d="M79 7h1M66 9h1M64 10h1M63 11h2M84 11h2M61 13h2M61 14h1M60 15h1M87 15h1M60 16h1M74 16h1M59 17h2M65 17h1M59 18h1M64 18h1M68 18h2M89 19h1M59 20h1M63 20h1M77 20h1M60 21h1M88 21h1M60 23h1M66 23h1M68 23h1M75 23h2M78 23h1M87 23h1M67 24h1M76 24h1M79 24h1M83 24h1M61 25h1M86 25h1M62 26h1M67 26h1M79 26h1M85 26h2M66 27h1M85 27h2M61 72h1M82 72h2M61 73h1M82 73h2M83 74h1M83 75h1M83 76h1M92 83h1" />
<path stroke="#613816" d="M69 8h1M68 9h1M72 9h5" />
<path stroke="#6c4321" d="M72 8h1M77 8h1M69 9h1M66 30h1M76 30h1" />
<path stroke="#c09575" d="M80 8h1M64 12h1M60 20h1" />
<path stroke="#100000" d="M65 9h1M65 10h1M85 12h1M87 14h1M88 16h1M89 17h1M90 18h1M67 23h1M68 27h1M75 27h2M62 90h3" />
<path stroke="#ba8b68" d="M78 9h1M80 9h1M60 18h1" />
<path stroke="#ca9871" d="M79 9h1" />
<path stroke="#2d0704" d="M66 10h1M73 15h1M89 16h1M82 24h1" />
<path stroke="#c19877" d="M67 10h1M79 10h1M63 13h1" />
<path stroke="#835f41" d="M68 10h1M63 15h1M69 15h1M82 17h1M87 17h1M84 19h1" />
<path stroke="#7a573b" d="M69 10h2M72 10h1M70 11h3M83 11h1M70 12h2M75 12h1M70 13h1M76 13h1M85 13h1M83 14h1M64 15h1M64 16h1M62 18h1" />
<path stroke="#79563a" d="M71 10h1M73 10h1M68 11h2M68 12h2M73 12h1M84 12h1M69 13h1M75 15h1M76 16h1M84 17h1" />
<path stroke="#765337" d="M74 10h1M76 11h1M72 12h1M81 13h2M78 14h1M67 16h1M85 18h1" />
<path stroke="#785539" d="M75 10h2M78 10h1M73 11h1M77 11h1M66 13h1M71 13h1M80 14h1M78 15h1M81 15h2M82 16h2M83 17h1M85 17h1" />
<path stroke="#704e32" d="M77 10h1M78 11h2M76 12h1M72 13h1M71 14h1M82 14h1M74 15h1M83 15h1" />
<path stroke="#7b583c" d="M82 10h1M74 11h1M84 15h1" />
<path stroke="#876445" d="M67 11h1M67 15h1M62 16h1M68 16h1M61 18h1" />
<path stroke="#745135" d="M75 11h1M64 14h1M69 14h2M79 14h1M81 14h1M66 15h1M79 15h1M73 16h1M84 16h1M86 19h1" />
<path stroke="#775438" d="M80 11h1M68 13h1M80 15h1M79 16h1M80 17h1" />
<path stroke="#cfa583" d="M81 11h2M83 12h1M72 17h1" />
<path stroke="#1f0604" d="M62 12h1M63 43h1M89 43h1M90 44h1M60 45h1M59 46h1M57 49h1M93 50h1M98 70h1M97 71h1M96 72h1M95 73h1M53 76h1M54 77h1M55 78h1M91 84h1M56 86h1M58 88h1" />
<path stroke="#300a06" d="M65 12h1M65 18h1M67 18h1M86 18h1M87 19h1M77 21h1M79 21h1M80 22h1" />
<path stroke="#7c593c" d="M66 12h1M66 14h1M63 16h1" />
<path stroke="#7d5a3d" d="M67 12h1M67 13h1M67 14h2M85 16h1M71 17h1M77 17h1M78 18h1" />
<path stroke="#c49a7b" d="M74 12h1M77 12h1M79 12h1M81 12h1M75 13h1M76 14h1M82 18h1" />
<path stroke="#c3997a" d="M80 12h1M77 15h1" />
<path stroke="#240606" d="M86 12h1M88 15h1M62 27h1M66 134h1M72 134h2M79 134h2M85 134h2M72 135h2M80 135h1M85 135h1M63 136h1M72 136h2M61 137h1M63 137h1M72 137h2M79 137h1M86 137h2M59 138h1M61 138h1M72 138h2M79 138h1M72 139h2M87 139h1" />
<path stroke="#8c694c" d="M64 13h1M73 19h1M78 19h1M86 20h1M84 21h3M84 22h1M86 22h1M85 23h2" />
<path stroke="#7f5c3e" d="M73 13h1M72 14h1M74 14h1M80 16h2M76 17h1M85 20h1" />
<path stroke="#cda282" d="M74 13h1M84 14h2" />
<path stroke="#c59b7b" d="M77 13h1M80 13h1M68 15h1M86 15h1M83 19h1" />
<path stroke="#c99f7f" d="M83 13h1M70 16h1M61 17h1" />
<path stroke="#d2a886" d="M84 13h1M85 15h1" />
<path stroke="#bb9172" d="M62 14h1M73 14h1M72 15h1M61 16h1" />
<path stroke="#906c4d" d="M63 14h1M85 22h1" />
<path stroke="#785437" d="M70 15h1M86 17h1" />
<path stroke="#815d40" d="M71 15h1M76 15h1M77 16h1M85 19h1" />
<path stroke="#d6ab88" d="M72 16h1" />
<path stroke="#241611" d="M75 16h1M68 17h1M75 17h1M71 18h1M81 19h1M82 20h1M61 23h1M86 24h1" />
<path stroke="#7a5639" d="M78 16h1" />
<path stroke="#856143" d="M86 16h1M62 17h1M83 18h1M61 20h1" />
<path stroke="#281b14" d="M87 16h1M76 18h1M62 19h1M75 19h1M77 19h1M88 19h1M62 20h1M75 20h1M87 20h1M62 21h1M62 22h1M62 23h1M62 24h1" />
<path stroke="#7b583b" d="M63 17h1M78 17h1M63 18h1M84 18h1" />
<path stroke="#2b1e18" d="M69 17h2M79 17h1M88 17h1M79 18h1M61 21h1M83 21h1" />
<path stroke="#d0a380" d="M73 17h1M60 19h1" />
<path stroke="#b98079" d="M66 18h1M76 41h1M73 42h1M76 45h1" />
<path stroke="#1f130e" d="M70 18h1M71 19h1" />
<path stroke="#32241d" d="M72 18h1M77 18h1M82 19h1M83 20h1" />
<path stroke="#805e41" d="M73 18h1M61 19h1M79 19h1" />
<path stroke="#2f211a" d="M74 18h1M81 18h1M80 19h1M80 20h1M87 21h1M83 22h1M84 23h1M85 24h1" />
<path stroke="#7a5438" d="M87 18h1" />
<path stroke="#332920" d="M88 18h1" />
<path stroke="#1e0f09" d="M89 18h1" />
<path stroke="#bc837b" d="M65 19h1M64 21h1M78 41h1" />
<path stroke="#d59a91" d="M66 19h1" />
<path stroke="#b77e76" d="M67 19h1M85 29h1M83 35h1M78 42h1M76 44h1" />
<path stroke="#866448" d="M72 19h1" />
<path stroke="#8a674a" d="M74 19h1M79 20h1M84 20h1" />
<path stroke="#c08780" d="M65 20h1M70 21h1M77 43h1" />
<path stroke="#c69b95" d="M66 20h1M67 21h1M83 26h1" />
<path stroke="#c38a82" d="M67 20h1M69 20h1M76 21h1" />
<path stroke="#ba8078" d="M68 20h1M70 20h1M73 21h2M75 47h1" />
<path stroke="#d1a49e" d="M65 21h1M76 22h1M78 22h1M81 23h1" />
<path stroke="#c79d98" d="M66 21h1" />
<path stroke="#ca9f99" d="M68 21h1M65 22h1M74 22h1" />
<path stroke="#c59993" d="M69 21h1M66 22h2M73 22h1M75 22h1M84 27h1" />
<path stroke="#b57d75" d="M71 21h1M85 28h1M85 30h1M81 37h1M72 42h1M74 43h1M78 43h1M75 45h1" />
<path stroke="#b97f79" d="M72 21h1" />
<path stroke="#cb9189" d="M75 21h1" />
<path stroke="#23140d" d="M61 22h1M87 22h1M62 25h1" />
<path stroke="#d6a8a2" d="M64 22h1" />
<path stroke="#bc918d" d="M68 22h1M70 22h1M82 25h1M83 28h1M83 29h1M83 30h1M83 31h1M83 32h1M82 34h1M81 35h1M80 36h1M72 38h1" />
<path stroke="#c39792" d="M69 22h1M72 22h1M84 26h1" />
<path stroke="#c29691" d="M71 22h1M79 22h1" />
<path stroke="#c99d98" d="M77 22h1M83 27h1" />
<path stroke="#ba8d88" d="M64 23h1M84 31h1" />
<path stroke="#260b00" d="M65 23h1M66 24h1M77 24h2M66 26h1M67 27h1" />
<path stroke="#fbd8b2" d="M69 23h1M81 28h1M80 34h1M72 40h1M74 41h1M74 45h1" />
<path stroke="#ffddb8" d="M70 23h1M73 23h1M63 26h1M70 26h1M73 26h1M63 28h1M64 30h1M79 30h1M73 39h1" />
<path stroke="#f8d4b0" d="M71 23h1M70 25h1M73 25h1M70 28h4M82 30h1M82 31h1M81 32h1M82 33h1M78 36h1" />
<path stroke="#f7d4af" d="M72 23h1M71 24h2M71 25h2M81 31h1M66 34h1M70 41h1" />
<path stroke="#fdd9b2" d="M74 23h1M81 33h1M74 47h1" />
<path stroke="#220600" d="M77 23h1M65 24h1M68 24h1M75 24h1M65 26h1M68 26h1M75 26h3M80 26h1" />
<path stroke="#2a0f00" d="M79 23h1M78 26h1" />
<path stroke="#bb8e89" d="M80 23h1M84 29h1M84 30h1" />
<path stroke="#1c0c06" d="M61 24h1" />
<path stroke="#301303" d="M64 24h1M64 26h1M77 27h1M66 29h1M76 29h1" />
<path stroke="#fbd7b2" d="M69 24h1M74 24h1" />
<path stroke="#ffe0b9" d="M70 24h1M73 24h1M65 25h1M73 45h1M74 46h1" />
<path stroke="#3e220f" d="M80 24h1" />
<path stroke="#ffdbb7" d="M81 24h1M68 40h1" />
<path stroke="#ffe5be" d="M63 25h1M82 26h1M73 44h1" />
<path stroke="#ffdab4" d="M64 25h1M79 25h1M82 27h1M69 40h2M72 45h1" />
<path stroke="#ffe2bc" d="M66 25h1M77 25h2M69 30h1M74 30h1" />
<path stroke="#c78d85" d="M67 25h1M69 25h1M74 25h1M76 25h1" />
<path stroke="#b57a75" d="M68 25h1M75 25h1" />
<path stroke="#f2cda8" d="M80 25h1M70 36h1M73 36h1M69 37h1M73 47h1" />
<path stroke="#ffecc4" d="M81 25h1M73 46h1" />
<path stroke="#220405" d="M61 26h1M65 135h1M64 136h1M79 136h1M86 136h1M62 137h1M78 137h1M60 138h1M87 138h1M78 139h1M88 139h1" />
<path stroke="#ac726c" d="M69 26h1M74 26h1M77 41h1" />
<path stroke="#f9d5b0" d="M71 26h2M70 29h1M73 29h1M64 33h1M68 33h1M75 33h1M78 33h1M79 35h1M71 36h1M72 41h1" />
<path stroke="#f9d5af" d="M81 26h1M69 32h1M74 32h1M79 32h1M65 33h1M72 36h1" />
<path stroke="#f6cea8" d="M63 27h1M63 30h1M69 31h1M74 31h1M79 31h1" />
<path stroke="#9e9b98" d="M64 27h1M65 28h1" />
<path stroke="#8b8886" d="M65 27h1M78 27h1M80 27h1M69 28h1" />
<path stroke="#f5d1ae" d="M70 27h1M73 27h1M70 32h1M73 32h1M80 32h1M79 33h2M68 34h1M75 34h1M78 34h2M67 35h1M78 35h1M80 35h1M67 36h2M79 37h1M68 38h1" />
<path stroke="#fed9b5" d="M71 27h2" />
<path stroke="#93908e" d="M79 27h1M74 28h2" />
<path stroke="#fbd7b1" d="M81 27h1M82 32h1M72 44h1" />
<path stroke="#ffffff" d="M64 28h1M79 28h2M64 29h2M68 29h2M74 29h2M78 29h2M65 30h1M68 30h1M75 30h1M78 30h1" />
<path stroke="#3c2413" d="M66 28h1" />
<path stroke="#fcfcfc" d="M67 28h1" />
<path stroke="#a1a2a2" d="M68 28h1" />
<path stroke="#432816" d="M76 28h1M67 29h1M77 29h1" />
<path stroke="#f9f8f8" d="M77 28h1" />
<path stroke="#b3b1ae" d="M78 28h1" />
<path stroke="#f8d2ad" d="M82 28h1M63 29h1M80 31h1M71 41h1M72 43h1" />
<path stroke="#c1938e" d="M84 28h1" />
<path stroke="#f4cfab" d="M71 29h2M65 37h1M78 38h1M69 39h1" />
<path stroke="#f9d6b3" d="M80 29h1" />
<path stroke="#f7d1aa" d="M81 29h1M64 34h1" />
<path stroke="#f7d3af" d="M82 29h1M81 30h1M71 32h2M67 34h1M69 34h1M74 34h1M76 34h2M75 36h1M75 41h1M74 44h1" />
<path stroke="#f5cea8" d="M70 30h1M73 30h1M65 34h1M65 35h1M65 36h2" />
<path stroke="#f4d0ad" d="M71 30h2M63 32h1M64 35h1M66 35h1M68 35h1M75 35h3M76 36h2M67 37h1M66 38h1M67 39h1M77 39h1M76 40h1" />
<path stroke="#f3cca4" d="M80 30h1M63 31h1M66 37h1M67 38h1M68 39h1" />
<path stroke="#fbcfa7" d="M64 31h1" />
<path stroke="#be9692" d="M65 31h1M68 31h1M75 31h1M78 31h1" />
<path stroke="#4e6377" d="M66 31h2M76 31h2" />
<path stroke="#f6d2ae" d="M70 31h1M73 31h1M69 33h2M73 33h2M81 34h1M69 35h1M74 35h1M76 37h2M73 41h1" />
<path stroke="#f4d1ae" d="M71 31h2" />
<path stroke="#b47a72" d="M85 31h1M84 33h1M84 34h1M77 40h1" />
<path stroke="#fcd5ac" d="M64 32h1" />
<path stroke="#f5cda9" d="M65 32h1" />
<path stroke="#b98f8d" d="M66 32h2M76 32h2" />
<path stroke="#f5cdaa" d="M68 32h1M75 32h1M78 32h1" />
<path stroke="#b27872" d="M84 32h1M79 39h1" />
<path stroke="#c28f87" d="M85 32h1" />
<path stroke="#fad3af" d="M66 33h2M76 33h2" />
<path stroke="#f2ceac" d="M71 33h2" />
<path stroke="#b98b85" d="M83 33h1" />
<path stroke="#f3cfad" d="M70 34h1M73 34h1" />
<path stroke="#b78b89" d="M71 34h2M71 38h1" />
<path stroke="#aa6b65" d="M83 34h1" />
<path stroke="#fcd9b6" d="M70 35h1M73 35h1M70 39h1" />
<path stroke="#f8d6b5" d="M71 35h2M68 37h1M71 39h2" />
<path stroke="#af7d79" d="M82 35h1M81 36h1" />
<path stroke="#f8d5b3" d="M69 36h1M75 39h1" />
<path stroke="#fddaba" d="M74 36h1M75 37h1" />
<path stroke="#f9d6b1" d="M79 36h1M73 40h1" />
<path stroke="#b67f78" d="M82 36h1M75 42h1M76 43h1M75 44h1" />
<path stroke="#824103" d="M70 37h1M73 37h1M74 38h1" />
<path stroke="#742f00" d="M71 37h2" />
<path stroke="#e9c29c" d="M74 37h1M73 38h1" />
<path stroke="#fcdbb5" d="M78 37h1M77 38h1M76 39h1" />
<path stroke="#b2807b" d="M80 37h1" />
<path stroke="#fbd8b5" d="M69 38h1M76 38h1" />
<path stroke="#eec9a4" d="M70 38h1M75 38h1M74 39h1M72 46h1" />
<path stroke="#af746b" d="M79 38h1M76 47h1" />
<path stroke="#b37a74" d="M80 38h1M76 42h1M77 46h1" />
<path stroke="#b17671" d="M78 39h1M78 40h1M74 42h1M75 43h1" />
<path stroke="#fedcb6" d="M71 40h1M75 40h1" />
<path stroke="#fddbb7" d="M74 40h1" />
<path stroke="#250d0a" d="M63 42h1M79 42h1M84 74h1M84 78h1M92 79h1" />
<path stroke="#210806" d="M64 42h1M88 42h1M70 43h1M94 52h1M55 53h1M95 54h1M54 55h1M96 55h1M53 56h1M96 57h1M53 58h1M52 59h1M97 59h1M52 61h1M98 61h1M51 62h1M99 62h1M62 73h1M61 74h2M82 74h1M93 74h1M61 75h2M82 75h1M61 76h2M82 76h1M61 77h2M82 77h2M61 78h2M82 78h2M61 79h2M82 79h2M61 80h2M82 80h2M92 80h1M61 81h2M82 81h2M61 82h2M55 87h1M59 89h1" />
<path stroke="#240b08" d="M65 42h2M82 42h6M67 43h3M79 43h1M82 43h5M61 45h1M58 47h1M92 48h1M56 50h1M94 51h1M55 52h2M94 53h2M54 54h1M96 58h1M53 59h1M52 62h1M51 63h2M52 64h1M92 74h1M92 75h1M57 81h1M56 82h1M56 83h1M90 85h1M88 86h1" />
<path stroke="#230b08" d="M67 42h1M81 43h1M88 43h1M61 44h1M90 45h1M54 56h1M97 58h1M98 60h1M98 62h1" />
<path stroke="#240c09" d="M68 42h1M81 42h1M87 43h1M70 44h2M79 44h1M70 45h2M90 46h1M59 47h1M91 48h1M57 50h1M93 51h1M55 54h1M95 56h1M54 57h1M53 60h1M97 60h1M51 64h1M99 64h1M52 65h1M51 66h1M94 73h1M60 74h1M60 75h1M84 75h1M91 75h1M84 76h1M90 76h1M90 77h2M57 80h1M56 81h1M92 81h1M57 82h1M56 84h2M90 84h1M57 85h1M89 85h1M88 87h1" />
<path stroke="#240d0a" d="M69 42h1M78 45h2M70 46h1M78 47h1M77 48h1" />
<path stroke="#220a07" d="M70 42h1M80 42h1M71 43h1M80 43h1M62 44h1M91 45h1M91 47h1M58 48h1M92 49h1M56 51h1M95 55h1M99 69h1M51 74h1M56 79h1M91 79h1M55 86h1M56 87h2" />
<path stroke="#2d110f" d="M71 42h1M74 48h1M65 65h1M72 87h1M58 138h1" />
<path stroke="#bc837c" d="M77 42h1M75 46h1" />
<path stroke="#311815" d="M89 42h1M91 44h1M86 49h1M66 53h1M97 70h1M96 71h1M95 72h1M93 73h1M52 74h1M91 74h1M53 75h1M90 75h1M54 76h1M55 77h1M83 82h1M57 86h1M79 88h1" />
<path stroke="#28100d" d="M62 43h1M81 44h1M88 44h1M59 45h1M80 45h1M87 45h1M87 47h1M57 48h1M60 48h1M75 48h1M89 48h1M59 49h2M69 49h1M93 49h1M58 50h2M61 50h1M63 50h1M91 50h1M58 51h2M61 51h1M91 51h2M57 52h2M91 52h2M58 53h1M91 53h1M93 53h1M57 54h1M66 54h1M92 54h1M57 55h1M77 55h1M55 56h1M57 56h1M57 59h1M66 59h1M99 70h1M98 71h1M59 72h1M84 72h1M75 74h1M95 74h1M51 75h2M74 75h1M52 76h1M60 77h1M54 78h1M89 78h1M55 79h1M58 79h1M60 79h1M60 80h1M58 81h1M75 81h1M59 82h1M58 89h1M84 89h1" />
<path stroke="#301512" d="M64 43h1M71 47h1M95 57h1M96 59h1M98 64h1M65 66h1M98 69h1M76 79h1M76 81h1M66 82h1M76 82h1M57 83h1M66 83h1M66 84h1M69 87h3" />
<path stroke="#3b211e" d="M65 43h2M77 47h1M90 78h1M91 80h1M91 81h1M91 82h1M58 139h1" />
<path stroke="#fdd8b4" d="M73 43h1" />
<path stroke="#321916" d="M90 43h1M87 48h1M56 54h1M56 56h1M55 57h1M54 59h2M54 60h2M54 61h1M53 62h2M53 63h2M53 64h1M53 65h1M98 65h1M52 66h2M98 66h1M52 67h2M97 67h2M52 68h2M96 68h3M52 69h2M96 69h2M52 70h2M95 70h2M51 71h3M94 71h2M51 72h3M93 72h2M51 73h4M63 73h1M78 73h4M91 73h2M53 74h2M63 74h1M77 74h5M90 74h1M54 75h2M63 75h3M77 75h5M55 76h1M65 76h1M77 76h5M87 76h3M56 77h3M63 77h3M77 77h5M57 78h2M63 78h3M77 78h5M86 78h1M59 79h1M63 79h3M77 79h1M79 79h3M59 80h1M63 80h3M77 80h1M80 80h2M84 80h1M86 80h1M63 81h3M77 81h1M81 81h1M86 81h2M63 82h1M77 82h1M82 82h1M84 82h1M88 82h1M60 83h4M78 83h1M83 83h1M85 83h1M60 84h3M78 84h1M85 84h2M58 85h2M61 85h1M78 85h1M86 85h2M58 86h3M78 86h2M78 87h2M81 88h2" />
<path stroke="#260e0b" d="M60 44h1M89 44h1M58 46h1M60 46h1M78 46h1M91 46h1M92 47h1M78 48h1M56 49h1M77 49h1M94 50h1M55 51h1M95 52h1M54 53h1M96 54h1M53 55h1M96 56h1M53 57h1M97 57h1M52 58h1M98 59h1M52 60h1M51 61h1M99 61h1M99 63h1M51 65h1M59 70h1M60 72h1M94 74h1M93 75h1M91 76h1M84 77h1M88 78h1M91 78h1M84 79h2M56 80h1M92 82h1M91 83h1M56 85h1M89 86h1M84 88h1M83 89h1M85 89h1" />
<path stroke="#3e2421" d="M63 44h1M62 45h1M63 48h1M84 48h1M83 49h1M62 50h1M64 50h1M82 50h1M65 51h1M81 51h1M84 51h1M80 52h1M83 52h1M64 53h1M82 53h1M65 54h1M80 54h1M78 55h1M59 61h1M97 61h1M57 64h1M57 67h1M59 67h1M88 67h1M90 67h1M86 68h1M85 69h1M88 69h1M84 70h1M87 70h1M86 71h1M62 72h1M67 75h1M75 75h1M67 80h1M89 82h1M89 84h1M60 88h1M61 89h2" />
<path stroke="#3f2522" d="M64 44h5M82 44h6M64 45h5M81 45h6M63 46h7M80 46h6M62 47h8M80 47h7M64 48h6M79 48h5M88 48h1M64 49h5M79 49h4M87 49h1M65 50h4M78 50h4M85 50h4M63 51h1M67 51h1M78 51h3M85 51h4M61 52h1M63 52h1M66 52h2M78 52h1M84 52h5M61 53h3M67 53h1M78 53h2M83 53h6M61 54h4M67 54h1M81 54h8M93 54h1M61 55h6M79 55h10M92 55h1M60 56h7M77 56h1M79 56h10M92 56h1M94 56h1M60 57h7M77 57h12M92 57h3M56 58h1M60 58h6M77 58h12M91 58h5M56 59h1M60 59h6M77 59h12M91 59h5M56 60h2M60 60h6M77 60h12M91 60h6M55 61h3M60 61h6M77 61h12M91 61h6M55 62h3M59 62h7M77 62h12M91 62h7M55 63h3M59 63h7M77 63h12M91 63h7M54 64h3M59 64h6M77 64h12M91 64h7M54 65h3M59 65h6M77 65h12M91 65h7M54 66h3M59 66h6M77 66h12M91 66h7M54 67h3M60 67h6M77 67h11M91 67h6M54 68h4M60 68h6M77 68h9M90 68h6M54 69h4M60 69h6M77 69h8M89 69h7M54 70h4M61 70h5M77 70h6M88 70h7M54 71h5M61 71h1M63 71h3M77 71h7M87 71h7M54 72h5M63 72h3M77 72h5M85 72h8M55 73h5M64 73h2M84 73h1M86 73h5M55 74h5M65 74h1M85 74h5M56 75h4M66 75h1M85 75h4M56 76h4M64 76h1M67 76h1M75 76h1M85 76h2M59 77h1M66 77h2M75 77h1M66 78h2M75 78h1M85 78h1M67 79h1M75 79h1M78 79h1M89 79h2M66 80h1M75 80h1M78 80h2M87 80h4M78 81h3M85 81h1M88 81h3M58 82h1M65 82h1M78 82h4M85 82h2M90 82h1M59 83h1M64 83h2M79 83h4M86 83h3M58 84h1M63 84h3M79 84h6M87 84h1M62 85h4M79 85h7M61 86h4M80 86h5M86 86h1M59 87h1M61 87h4M80 87h6M62 88h1M63 89h2" />
<path stroke="#270f0c" d="M69 44h1M78 44h1M69 45h1M88 45h1M61 46h1M88 46h2M60 47h2M79 47h1M88 47h3M59 48h1M61 48h2M70 48h1M85 48h2M90 48h1M58 49h1M61 49h3M78 49h1M84 49h1M89 49h3M60 50h1M77 50h1M83 50h2M89 50h2M92 50h1M57 51h1M60 51h1M64 51h1M69 51h1M77 51h1M82 51h2M89 51h2M59 52h2M64 52h2M68 52h1M77 52h1M81 52h2M89 52h2M93 52h1M56 53h2M59 53h2M65 53h1M68 53h1M76 53h1M80 53h2M89 53h2M92 53h1M58 54h3M78 54h2M89 54h3M94 54h1M55 55h1M58 55h3M68 55h1M89 55h3M58 56h2M67 56h1M76 56h1M89 56h3M57 57h3M76 57h1M89 57h3M54 58h1M57 58h3M76 58h1M89 58h2M58 59h2M67 59h1M76 59h1M89 59h2M58 60h2M66 60h1M76 60h1M89 60h2M53 61h1M58 61h1M76 61h1M89 61h2M58 62h1M76 62h1M89 62h2M58 63h1M76 63h1M89 63h2M58 64h1M76 64h1M89 64h2M57 65h2M76 65h1M89 65h2M99 65h1M57 66h2M76 66h1M89 66h2M99 66h1M51 67h1M58 67h1M76 67h1M89 67h1M99 67h1M51 68h1M58 68h2M76 68h1M87 68h3M99 68h1M51 69h1M58 69h2M76 69h1M86 69h2M51 70h1M58 70h1M60 70h1M76 70h1M85 70h2M59 71h2M76 71h1M84 71h2M76 72h1M60 73h1M66 73h1M76 73h1M68 75h1M60 76h1M53 77h1M88 77h2M56 78h1M60 78h1M87 78h1M57 79h1M86 79h3M58 80h1M85 80h1M59 81h2M66 81h1M60 82h1M92 84h1M77 85h1M88 85h1M66 86h1M76 86h2M58 87h1M65 87h2M87 87h1M59 88h1M66 88h1M86 88h1M78 89h1M80 89h1M65 90h1" />
<path stroke="#be857d" d="M77 44h1" />
<path stroke="#260f0c" d="M80 44h1M70 47h1M85 49h1M69 50h1M68 51h1M77 53h1M68 54h1M76 54h2M76 55h1M67 57h1M67 58h1M66 61h1M66 62h1M66 63h1M66 64h1M66 65h1M66 66h1M66 67h1M66 68h1M66 69h1M66 70h1M66 71h1M66 72h1M66 74h1M68 76h1M74 76h1M68 77h1M74 77h1M68 78h1M74 78h1M68 79h1M74 79h1M68 80h1M74 80h1M67 81h2M74 81h1M65 86h1" />
<path stroke="#402623" d="M63 45h1M62 46h1M86 46h1M76 48h1M88 49h1M62 51h1M66 51h1M62 52h1M79 52h1M93 55h1M78 56h1M93 56h1M83 70h1M62 71h1M85 73h1M85 77h1M58 83h1M88 84h1M85 86h1M60 87h1M61 88h1M63 88h2" />
<path stroke="#c68b83" d="M77 45h1" />
<path stroke="#280f0c" d="M89 45h1M94 55h1M98 63h1M67 74h1M76 85h1M87 86h1M77 87h1M86 87h1M65 88h1M77 88h2M80 88h1M83 88h1M85 88h1M60 89h1M65 89h2M79 89h1M81 89h2" />
<path stroke="#250e0b" d="M71 46h1M79 46h1" />
<path stroke="#c38780" d="M76 46h1" />
<path stroke="#391e1b" d="M87 46h1M72 47h1M73 48h1M66 58h1M65 64h1M76 76h1M76 77h1M74 86h2M73 87h1M60 137h1" />
<path stroke="#4e151f" d="M71 48h1M72 49h1M73 50h1M76 50h1M76 51h1M76 52h1M75 56h1M75 57h1M75 58h1M75 59h1M75 60h1M75 61h1M75 62h1M75 63h1M75 64h1M75 65h1M75 66h1M75 67h1M75 68h1M75 69h1M75 70h1M75 71h1M75 72h1M75 82h1M74 84h1M73 85h1" />
<path stroke="#49111b" d="M72 48h1" />
<path stroke="#341916" d="M70 49h1M76 84h1M67 87h1" />
<path stroke="#4e161f" d="M71 49h1M70 50h2M74 50h2M74 51h2M75 52h1M74 53h1M74 54h2M74 55h2M74 56h1M74 57h1M74 58h1M74 59h1M74 60h1M74 61h1M74 62h1M74 63h1M74 64h1M74 65h1M74 66h1M74 67h1M74 68h1M74 69h1M74 70h1M74 71h1M74 72h1M74 73h1M73 74h1M73 82h2M74 83h2M75 84h1M74 85h2M73 86h1" />
<path stroke="#4b131d" d="M73 49h2" />
<path stroke="#4c141d" d="M75 49h1" />
<path stroke="#4d151e" d="M76 49h1M75 73h1M74 74h1M73 75h1M73 76h1M73 77h1M73 78h1M73 79h1M73 80h1" />
<path stroke="#4d161f" d="M72 50h1M74 52h1M75 53h1M73 55h1M73 56h1M73 57h1M73 58h1M73 59h1M73 60h1M73 61h1M73 62h1M73 63h1M73 64h1M73 65h1M73 66h1M73 67h1M73 68h1M73 69h1M73 70h1M73 71h1M73 72h1M73 73h1M73 81h1M73 83h1M73 84h1" />
<path stroke="#671523" d="M70 51h1M73 51h1M69 52h1M71 52h1M71 53h3M69 54h1M71 54h3M69 55h1M71 55h2M68 56h1M70 56h3M70 57h3M68 58h1M70 58h3M68 59h1M70 59h3M67 60h1M69 60h4M69 61h4M67 62h1M69 62h4M67 63h1M69 63h4M67 64h1M69 64h4M69 65h4M69 66h4M67 67h1M69 67h4M67 68h1M69 68h4M67 69h1M69 69h4M67 70h1M69 70h4M67 71h1M69 71h4M69 72h4M67 73h1M69 73h4M68 74h1M70 74h3M69 75h1M71 75h1M69 76h1M71 76h1M69 77h1M71 77h1M69 78h1M71 78h1M69 79h1M71 79h1M69 80h1M71 80h1M69 81h1M71 81h1M67 82h1M70 82h3M69 83h4M67 84h1M69 84h4" />
<path stroke="#681523" d="M71 51h2M70 52h1M72 52h2M69 53h2M70 54h1M70 55h1M69 56h1M68 57h2M69 58h1M69 59h1M68 60h1M67 61h2M68 62h1M68 63h1M68 64h1M67 65h2M67 66h2M68 67h1M68 68h1M68 69h1M68 70h1M68 71h1M67 72h2M68 73h1M69 74h1M70 75h1M72 75h1M70 76h1M72 76h1M70 77h1M72 77h1M70 78h1M72 78h1M70 79h1M72 79h1M70 80h1M72 80h1M70 81h1M72 81h1M68 82h2M67 83h2M68 84h1M67 85h6M67 86h6" />
<path stroke="#331a17" d="M56 55h1M67 55h1M56 57h1M55 58h1M64 74h1M76 75h1M89 75h1M63 76h1M66 76h1M86 77h1M59 78h1M66 79h1M84 81h1M64 82h1M89 83h1M59 84h1" />
<path stroke="#361e1b" d="M97 72h1M76 74h1M57 88h1" />
<path stroke="#311916" d="M77 73h1M96 73h1M87 77h1M87 82h1M77 83h1M84 83h1M90 83h1M77 84h1M60 85h1" />
<path stroke="#321713" d="M76 78h1M76 80h1M76 83h1M66 85h1M91 85h1M68 87h1" />
<path stroke="#442f2c" d="M93 83h1" />
<path stroke="#0b1321" d="M74 87h3M67 88h7M71 89h1M71 90h1M83 90h1M63 91h1M85 92h5M60 93h1M86 93h1M86 94h1" />
<path stroke="#161f2d" d="M89 87h1M88 88h2M88 89h2M60 90h1M88 90h2M60 91h1M88 93h2M59 94h1M88 94h2M59 95h1M88 95h2M76 97h1M72 98h1M72 99h2M76 99h2M73 100h1M77 100h1M73 101h1M73 102h1M78 102h1M73 103h1M77 103h2M73 104h1M77 104h2M73 105h1M77 105h2M73 106h1M77 106h1M73 107h1M77 107h1M73 108h1M77 108h1M73 109h1M77 109h1M73 110h1M77 110h1M73 111h1M77 111h1M72 112h2M77 112h1M72 113h2M77 113h1M62 114h2M72 114h2M77 114h2M87 114h1M62 115h2M72 115h2M77 115h2M87 115h1M62 116h2M72 116h2M77 116h2M87 116h1M63 117h1M72 117h2M77 117h2M87 117h1M72 118h2M77 118h2M64 119h1M72 119h2M77 119h1M63 120h2M72 120h2M78 120h1M63 121h2M72 121h2M63 122h1M73 122h1M63 123h1M73 123h1M78 123h1M73 124h1M78 124h1M78 125h2M78 126h2M78 127h2M79 128h1M79 131h1M79 132h2M79 133h2" />
<path stroke="#192232" d="M74 88h1M76 88h1M67 89h3M87 89h1M79 90h2M86 90h1M66 91h1M80 91h2" />
<path stroke="#1a2331" d="M75 88h1M73 89h1M76 89h1M67 90h1M69 90h1M77 90h1M81 90h1M87 90h1M79 91h1M82 91h1M84 93h1M79 115h1M85 115h1M85 117h1M79 118h1" />
<path stroke="#1a2231" d="M87 88h1M75 89h1M77 89h1M66 90h1M68 90h1M78 90h1M65 91h1M67 91h1M81 92h1M83 92h1M82 93h2M85 94h1M87 94h1M87 95h1M71 98h1M71 114h1M64 115h8M64 116h8M64 117h8M65 118h7M65 119h1M71 119h1" />
<path stroke="#182130" d="M70 89h1M86 89h1M59 90h1M70 90h1M82 90h1M64 91h1M83 91h1M85 93h1M87 93h1M73 98h1M76 98h1M76 101h1M77 102h1M62 113h1M87 113h1M62 118h1M63 119h1M78 122h1M79 130h1" />
<path stroke="#465369" d="M72 89h1M84 90h1M85 91h1M61 92h1" />
<path stroke="#192230" d="M74 89h1M82 92h1M78 101h1M79 116h7M79 117h6M64 118h1" />
<path stroke="#48566b" d="M72 90h1M86 91h2" />
<path stroke="#253042" d="M73 90h1M75 90h2M68 91h2M73 91h1M75 91h4M64 92h7M72 92h1M74 92h7M63 93h8M73 93h9M62 94h9M72 94h13M61 95h10M72 95h14M61 96h10M72 96h2M77 96h9M87 96h1M61 97h10M77 97h9M87 97h1M62 98h9M78 98h8M87 98h1M62 99h10M78 99h8M87 99h1M62 100h10M78 100h8M87 100h1M62 101h10M79 101h7M62 102h10M79 102h7M62 103h10M79 103h7M62 104h10M79 104h7M62 105h10M79 105h7M63 106h9M79 106h7M63 107h9M79 107h7M63 108h9M79 108h7M63 109h9M79 109h7M63 110h9M79 110h7M63 111h9M79 111h7M64 112h8M79 112h7M64 113h8M79 113h7M64 114h7M79 114h7M80 115h5M80 118h6M66 119h5M79 119h7M65 120h7M79 120h7M65 121h7M80 121h6M65 122h7M80 122h5M65 123h7M80 123h5M65 124h7M80 124h5M66 125h6M80 125h5M66 126h6M80 126h5M66 127h6M80 127h5M66 128h6M80 128h5M66 129h6M81 129h4M67 130h5M81 130h4M67 131h5M81 131h4M67 132h5M81 132h4M67 133h5M81 133h4" />
<path stroke="#242f41" d="M74 90h1M70 91h1M74 91h1M63 92h1M73 92h1M62 93h1M72 93h1M61 94h1M76 96h1M59 98h1M61 98h1M60 99h1M87 101h1M89 101h1M88 102h1M60 106h1M62 106h1M61 107h1M63 112h1M88 112h1M79 121h1M85 122h1M87 124h1M65 125h1M86 125h1M64 126h1M80 129h1M64 130h1M66 130h1M65 131h1" />
<path stroke="#1c2534" d="M85 90h1" />
<path stroke="#18202f" d="M59 91h1M84 92h1M61 112h1M77 121h1M63 125h1M78 129h1" />
<path stroke="#1b2433" d="M61 91h1" />
<path stroke="#445167" d="M62 91h1M88 91h2M59 92h2" />
<path stroke="#121c2e" d="M71 91h1M61 93h1" />
<path stroke="#64748d" d="M72 91h1" />
<path stroke="#0d1729" d="M84 91h1M62 92h1M86 115h1M86 117h1M86 119h1M86 120h1M86 121h1M86 122h1M86 123h1M85 126h1M85 127h1M85 128h1M85 129h1M85 130h1M85 131h1" />
<path stroke="#111b2d" d="M71 92h1M71 93h1M71 94h1M71 95h1M86 95h1M71 96h1M86 96h1M71 97h2M74 97h2M86 97h1M86 98h1M86 99h1M86 100h1M86 101h1M86 102h1M86 103h1M86 104h1M86 105h1M86 106h1M86 107h1M86 108h1M86 109h1M86 110h1M86 111h1M86 112h1M85 123h1M85 124h1" />
<path stroke="#0e182a" d="M59 93h1M73 97h1M86 113h1M86 114h1M86 116h1M86 118h1M85 125h1M85 132h1M85 133h1" />
<path stroke="#202c3e" d="M60 94h1M62 111h1" />
<path stroke="#212c3f" d="M60 95h1M60 96h1M75 96h1M89 96h1M89 97h1M77 98h1M88 98h1M88 99h1M88 100h1M72 101h1M88 104h1M88 105h1M88 106h1M78 107h1M88 107h1M88 108h1M61 109h2M88 109h1M62 110h1M72 110h1M87 110h1M78 112h1M63 113h1M87 119h1M64 123h1M72 123h1M79 123h1M72 125h1M72 126h2M73 133h1" />
<path stroke="#212c3e" d="M59 96h1M60 97h1M89 98h1M89 99h1M61 100h1M72 100h1M60 101h2M60 102h2M72 102h1M60 103h2M72 103h1M87 103h1M60 104h2M72 104h1M87 104h1M61 105h1M72 105h1M87 105h1M72 106h1M78 106h1M87 106h1M72 107h1M87 107h1M62 108h1M72 108h1M78 108h1M87 108h1M72 109h1M78 109h1M87 109h1M61 110h1M78 110h1M72 111h1M78 111h1M87 111h1M78 113h1M87 118h1M78 119h1M87 120h1M87 121h1M64 122h1M72 122h1M87 122h1M64 124h1M72 124h1M79 124h1M73 125h1M65 127h1M72 127h2M86 127h1M64 128h2M72 128h2M86 128h1M65 129h1M72 129h2M86 129h1M72 130h2M86 130h1M72 131h2M80 131h1M86 131h1M86 133h1" />
<path stroke="#212d3f" d="M74 96h1M88 96h1M88 97h1M61 99h1M60 100h1M87 102h1M62 107h1M61 108h1M88 110h1M79 122h1M65 126h1M86 126h1M64 127h1M66 131h1M65 132h2M72 132h2M86 132h1M65 133h2M72 133h1" />
<path stroke="#1e2a3c" d="M59 97h1M60 98h1M89 100h1M60 105h1M61 106h1M87 123h1M86 124h1M64 125h1M64 129h1M65 130h1" />
<path stroke="#131b2a" d="M76 100h1M77 120h1M63 124h1M78 128h1" />
<path stroke="#131c2b" d="M77 101h1M61 111h1M62 112h1M87 112h1M62 117h1M63 118h1M78 121h1M79 129h1" />
<path stroke="#1f2a3d" d="M88 101h1M88 111h1" />
<path stroke="#222d3f" d="M88 103h1M80 130h1" />
<path stroke="#280a0a" d="M65 134h1M67 134h5M81 134h4M66 135h6M79 135h1M81 135h4M86 135h1M62 136h1M65 136h7M78 136h1M80 136h6M87 136h1M64 137h8M80 137h6M62 138h10M78 138h1M80 138h7M88 138h1M60 139h12M77 139h1M79 139h8" />
<path stroke="#290b0c" d="M64 135h1" />
<path stroke="#211c19" d="M59 140h1" />
</svg>